<svg width="48" height="48" viewBox="0 0 48 48" fill="none" xmlns="http://www.w3.org/2000/svg">
  <g id="f12db5ca">
    <path id="2219336e" d="M21.42 40.4H32.84" stroke="white" stroke-width="2" stroke-linecap="round" stroke-linejoin="round"></path>
    <path id="ce55bf3d" d="M27.12 35.68C25.1817 35.68 23.287 35.1052 21.6754 34.0284C20.0638 32.9516 18.8077 31.421 18.066 29.6303C17.3242 27.8396 17.1302 25.8691 17.5083 23.9681C17.8864 22.0671 18.8198 20.3209 20.1903 18.9504C21.5609 17.5798 23.3071 16.6464 25.2081 16.2683C27.1091 15.8902 29.0796 16.0842 30.8703 16.826C32.661 17.5677 34.1916 18.8238 35.2684 20.4354C36.3452 22.047 36.92 23.9417 36.92 25.88C36.9147 28.4775 35.8805 30.9671 34.0438 32.8038C32.2071 34.6405 29.7175 35.6747 27.12 35.68Z" stroke="white" stroke-width="2" stroke-linecap="round" stroke-linejoin="round"></path>
    <path id="403b8db9" d="M27.12 29.42C29.0751 29.42 30.66 27.8351 30.66 25.88C30.66 23.9249 29.0751 22.34 27.12 22.34C25.1649 22.34 23.58 23.9249 23.58 25.88C23.58 27.8351 25.1649 29.42 27.12 29.42Z" stroke="white" stroke-width="2" stroke-linecap="round" stroke-linejoin="round"></path>
    <path id="57dd465f" d="M9.29999 11.76C9.29999 11.097 9.56339 10.4611 10.0322 9.99223C10.5011 9.52339 11.137 9.26 11.8 9.26H38.7V5.5C38.7 4.83696 38.4366 4.20107 37.9678 3.73223C37.4989 3.26339 36.863 3 36.2 3H5.53999C4.87695 3 4.24107 3.26339 3.77223 3.73223C3.30339 4.20107 3.03999 4.83696 3.03999 5.5V36.24C3.03999 36.903 3.30339 37.5389 3.77223 38.0078C4.24107 38.4766 4.87695 38.74 5.53999 38.74H9.29999V11.76Z" stroke="white" stroke-width="2" stroke-linecap="round" stroke-linejoin="round"></path>
    <path id="20ec12ef" d="M42.04 9.26H12.24C10.6163 9.26 9.3 10.5763 9.3 12.2V42.06C9.3 43.6837 10.6163 45 12.24 45H42.04C43.6637 45 44.98 43.6837 44.98 42.06V12.2C44.98 10.5763 43.6637 9.26 42.04 9.26Z" stroke="white" stroke-width="2" stroke-linecap="round" stroke-linejoin="round"></path>
  </g>
</svg>