<svg width="40" height="40" viewBox="0 0 40 40" fill="none" xmlns="http://www.w3.org/2000/svg">
  <g id="827ee6e2">
    <path id="5cca38da" d="M31.7667 18.2C31.7667 21.3207 30.527 24.3136 28.3203 26.5203C26.1136 28.727 23.1207 29.9667 20 29.9667C16.8793 29.9667 13.8864 28.727 11.6797 26.5203C9.47304 24.3136 8.23334 21.3207 8.23334 18.2" stroke="white" stroke-width="2" stroke-linecap="round" stroke-linejoin="round"></path>
    <path id="92a95ed8" d="M25.8333 8.33333C25.8333 5.11167 23.2217 2.5 20 2.5C16.7783 2.5 14.1667 5.11167 14.1667 8.33333V18.2C14.1667 21.4217 16.7783 24.0333 20 24.0333C23.2217 24.0333 25.8333 21.4217 25.8333 18.2V8.33333Z" stroke="white" stroke-width="2" stroke-linecap="round" stroke-linejoin="round"></path>
    <path id="b3f28a4a" d="M20 29.9667V37.5" stroke="white" stroke-width="2" stroke-linecap="round" stroke-linejoin="round"></path>
    <path id="dbe332e1" d="M15.7833 37.5H24.2167" stroke="white" stroke-width="2" stroke-linecap="round" stroke-linejoin="round"></path>
  </g>
</svg>