<svg width="36" height="36" viewBox="0 0 36 36" fill="none" xmlns="http://www.w3.org/2000/svg">
  <g id="29f160ef">
    <path id="7e357823" d="M3.675 3.705L12.39 9.3C12.5294 9.38783 12.6443 9.50956 12.724 9.65383C12.8036 9.7981 12.8454 9.96021 12.8454 10.125C12.8454 10.2898 12.8036 10.4519 12.724 10.5962C12.6443 10.7404 12.5294 10.8622 12.39 10.95L3.675 16.5C3.52985 16.6059 3.35751 16.6682 3.17819 16.6797C2.99888 16.6911 2.82001 16.6512 2.66257 16.5646C2.50513 16.478 2.37564 16.3484 2.28928 16.1908C2.20293 16.0332 2.16328 15.8543 2.175 15.675V4.5C2.16308 4.32093 2.20323 4.14223 2.29061 3.98547C2.37799 3.82871 2.50886 3.70057 2.66743 3.61653C2.826 3.53248 3.00551 3.49612 3.18429 3.51182C3.36307 3.52751 3.53349 3.59461 3.675 3.705Z" stroke="white" stroke-width="2" stroke-linecap="round" stroke-linejoin="round"></path>
    <path id="bb42cbe4" d="M18.255 4.545H33.75" stroke="white" stroke-width="2" stroke-linecap="round" stroke-linejoin="round"></path>
    <path id="1cdc7d1b" d="M18.255 10.125H33.75" stroke="white" stroke-width="2" stroke-linecap="round" stroke-linejoin="round"></path>
    <path id="4f3cd77c" d="M18.255 15.705H33.75" stroke="white" stroke-width="2" stroke-linecap="round" stroke-linejoin="round"></path>
    <path id="74c46507" d="M3 21.285H33.75" stroke="white" stroke-width="2" stroke-linecap="round" stroke-linejoin="round"></path>
    <path id="a5e274c2" d="M3 26.865H33.75" stroke="white" stroke-width="2" stroke-linecap="round" stroke-linejoin="round"></path>
    <path id="7d558d84" d="M3 32.445H33.75" stroke="white" stroke-width="2" stroke-linecap="round" stroke-linejoin="round"></path>
  </g>
</svg>