<svg width="45" height="45" viewBox="0 0 45 45" fill="none" xmlns="http://www.w3.org/2000/svg">
  <g id="4a3ca360">
    <path id="5b01724a" d="M17.9737 31.5338C17.4229 30.3342 15.1667 28.5827 14.6053 28.3299C13.321 27.6121 11.828 27.3246 10.3577 27.5119C8.88744 27.6993 7.52211 28.351 6.47345 29.3661C5.42479 30.3812 4.75141 31.7029 4.55772 33.1263C4.36403 34.5496 4.66087 35.995 5.4022 37.2384C6.14353 38.4818 7.28792 39.4536 8.6579 40.0032C10.0279 40.5528 11.5469 40.6494 12.9794 40.278C14.4119 39.9067 15.6778 39.0882 16.5807 37.9494C17.4837 36.8106 17.9734 35.4152 17.9737 33.9795V10.382C17.9737 9.91447 18.2976 9.50936 18.7536 9.40648L40.5 4.5L40.4998 29.325M40.4998 29.325L40.5 31.7712C40.4997 33.2068 40.01 34.6022 39.107 35.741C38.2041 36.8798 36.9382 37.6983 35.5057 38.0697C34.0732 38.441 32.5542 38.3444 31.1842 37.7948C29.8142 37.2452 28.6698 36.2734 27.9285 35.03C27.1872 33.7866 26.8903 32.3412 27.084 30.9179C27.2777 29.4945 27.9511 28.1728 28.9997 27.1577C30.0484 26.1426 31.4137 25.4909 32.884 25.3035C34.3543 25.1162 35.8473 25.4037 37.1316 26.1215C37.6929 26.3742 39.9486 28.1253 40.4998 29.325Z" stroke="white" stroke-opacity="0.9" stroke-width="2" stroke-linecap="round" stroke-linejoin="round"></path>
  </g>
</svg>