<svg width="24" height="24" viewBox="0 0 24 24" fill="none" xmlns="http://www.w3.org/2000/svg">
<path d="M4.01953 1H6.01953V4H9.01953V6H6.01953V9H4.01953V6H1.01953V4H4.01953V1Z" fill="#1ED760"/>
<path fill-rule="evenodd" clip-rule="evenodd" d="M11.9946 5.81836C11.9873 5.896 11.979 5.97314 11.9692 6.05029H20.0254L20.0244 15.6719H18.5244C16.5913 15.6719 15.0244 17.2388 15.0244 19.1719C15.0244 21.105 16.5913 22.6719 18.5244 22.6719C20.4575 22.6719 22.0244 21.105 22.0244 19.1719V4.05029H11.9365C11.9946 4.41309 12.0249 4.78564 12.0249 5.16504C12.0249 5.38525 12.0146 5.60303 11.9946 5.81836ZM18.5244 17.6719C17.6958 17.6719 17.0244 18.3433 17.0244 19.1719C17.0244 20.0005 17.6958 20.6719 18.5244 20.6719C18.7725 20.6719 19.0063 20.6118 19.2124 20.5049C19.6948 20.2554 20.0244 19.7524 20.0244 19.1719V17.6719H18.5244Z" fill="#1ED760"/>
<path fill-rule="evenodd" clip-rule="evenodd" d="M7.02539 11.875C7.74805 11.6602 8.42139 11.3315 9.02539 10.9102V19.1719C9.02539 21.105 7.4585 22.6719 5.52539 22.6719C3.59229 22.6719 2.02539 21.105 2.02539 19.1719C2.02539 17.2388 3.59229 15.6719 5.52539 15.6719H7.02539V11.875ZM5.52539 17.6719C4.69678 17.6719 4.02539 18.3433 4.02539 19.1719C4.02539 20.0005 4.69678 20.6719 5.52539 20.6719C6.354 20.6719 7.02539 20.0005 7.02539 19.1719V17.6719H5.52539Z" fill="#1ED760"/>
</svg>
