<svg width="16" height="16" viewBox="0 0 16 16" fill="none" xmlns="http://www.w3.org/2000/svg">
<path d="M7.27273 4.36364C7.27273 3.962 7.59837 3.63636 8 3.63636C8.40163 3.63636 8.72727 3.962 8.72727 4.36364V7.27273H11.6364C12.038 7.27273 12.3636 7.59837 12.3636 8C12.3636 8.40163 12.038 8.72727 11.6364 8.72727H8.72727V11.6364C8.72727 12.038 8.40163 12.3636 8 12.3636C7.73349 12.3636 7.50036 12.2202 7.37376 12.006C7.30966 11.8977 7.27273 11.7713 7.27273 11.6364V8.72727H4.36364C3.962 8.72727 3.63636 8.40163 3.63636 8C3.63636 7.82173 3.70046 7.65838 3.807 7.53196C3.94034 7.37358 4.14027 7.27273 4.36364 7.27273H7.27273V4.36364Z" fill="#B3B3B3"/>
<path fill-rule="evenodd" clip-rule="evenodd" d="M16 8C16 12.4183 12.4183 16 8 16C3.58168 16 0 12.4183 0 8C0 3.58168 3.58168 0 8 0C12.4183 0 16 3.58168 16 8ZM14.5455 8C14.5455 11.6151 11.6149 14.5455 8 14.5455C4.38512 14.5455 1.45455 11.6151 1.45455 8C1.45455 4.38494 4.38512 1.45455 8 1.45455C11.6149 1.45455 14.5455 4.38494 14.5455 8Z" fill="#B3B3B3"/>
</svg>
