<svg width="16" height="16" viewBox="0 0 16 16" fill="none" xmlns="http://www.w3.org/2000/svg">
<g clip-path="url(#clip0_1_304)">
<path d="M15.25 8C15.25 8.19891 15.171 8.38968 15.0303 8.53033C14.8897 8.67098 14.6989 8.75 14.5 8.75H8.75V14.5C8.75 14.6989 8.67098 14.8897 8.53033 15.0303C8.38968 15.171 8.19891 15.25 8 15.25C7.80109 15.25 7.61032 15.171 7.46967 15.0303C7.32902 14.8897 7.25 14.6989 7.25 14.5V8.75H1.5C1.30109 8.75 1.11032 8.67098 0.96967 8.53033C0.829018 8.38968 0.75 8.19891 0.75 8C0.75 7.80109 0.829018 7.61032 0.96967 7.46967C1.11032 7.32902 1.30109 7.25 1.5 7.25H7.25V1.5C7.25 1.30109 7.32902 1.11032 7.46967 0.96967C7.61032 0.829018 7.80109 0.75 8 0.75C8.19891 0.75 8.38968 0.829018 8.53033 0.96967C8.67098 1.11032 8.75 1.30109 8.75 1.5V7.25H14.5C14.6989 7.25 14.8897 7.32902 15.0303 7.46967C15.171 7.61032 15.25 7.80109 15.25 8Z" fill="#1ED760"/>
</g>
<defs>
<clipPath id="clip0_1_304">
<rect width="16" height="16" fill="white"/>
</clipPath>
</defs>
</svg>
