<svg width="16" height="16" viewBox="0 0 16 16" fill="none" xmlns="http://www.w3.org/2000/svg">
<path d="M0.21934 12.59C0.359965 12.7304 0.550589 12.8093 0.74934 12.8093C0.948091 12.8093 1.13871 12.7304 1.27934 12.59L7.74934 6.12L14.2193 12.59C14.288 12.6637 14.3708 12.7228 14.4628 12.7638C14.5548 12.8048 14.6541 12.8268 14.7548 12.8286C14.8555 12.8304 14.9555 12.8118 15.0489 12.7741C15.1423 12.7364 15.2272 12.6803 15.2984 12.609C15.3696 12.5378 15.4257 12.453 15.4635 12.3596C15.5012 12.2662 15.5197 12.1662 15.5179 12.0655C15.5162 11.9648 15.4941 11.8655 15.4531 11.7735C15.4121 11.6815 15.353 11.5987 15.2793 11.53L7.74934 4L0.21934 11.53C0.0788896 11.6706 0 11.8612 0 12.06C0 12.2587 0.0788896 12.4494 0.21934 12.59Z" fill="#1ED760"/>
</svg>
