<svg width="24" height="24" viewBox="0 0 24 24" fill="none" xmlns="http://www.w3.org/2000/svg">
<path d="M20.8389 3.16113C20.4483 2.77051 19.8152 2.77051 19.4246 3.16113L12.0002 10.5854L4.57547 3.16113C4.18497 2.77051 3.55179 2.77051 3.16129 3.16113C2.77066 3.55176 2.77066 4.18457 3.16129 4.5752L10.586 12L3.16116 19.4248C2.77066 19.8154 2.77066 20.4482 3.16116 20.8389C3.55167 21.2295 4.18484 21.2295 4.57535 20.8389L12 13.4141L19.4247 20.8389C19.8152 21.2295 20.4484 21.2295 20.8389 20.8389C21.2294 20.4482 21.2294 19.8149 20.8389 19.4243L13.4143 12L20.8389 4.5752C21.2294 4.18506 21.2294 3.55176 20.8389 3.16113Z" fill="white"/>
</svg>
