<svg width="16" height="16" viewBox="0 0 16 16" fill="none" xmlns="http://www.w3.org/2000/svg">
<path d="M7.71671 8.00517L12.7107 3.01092C12.9645 2.75742 13.0911 2.44738 13.0911 2.08083C13.0911 1.71431 12.9645 1.40441 12.7107 1.15095L11.9402 0.380122C11.6868 0.126731 11.3767 0 11.0103 0C10.6439 0 10.334 0.126731 10.0802 0.380122L3.38024 7.06992C3.12671 7.32342 2.99994 7.63343 2.99994 8.00002C2.99994 8.36661 3.12667 8.67636 3.38024 8.92997L10.0802 15.6198C10.3339 15.8733 10.6438 16 11.0103 16C11.3767 16 11.6868 15.8733 11.9401 15.6198L12.7107 14.8491C12.9645 14.5957 13.091 14.2875 13.091 13.9242C13.091 13.5612 12.9644 13.2495 12.7107 12.9892L7.71671 8.00517Z" fill="#1ED760"/>
</svg>
