<svg width="16" height="16" viewBox="0 0 16 16" fill="none" xmlns="http://www.w3.org/2000/svg">
<g clip-path="url(#clip0_1_334)">
<path d="M4.41 0.219332C4.26955 0.359958 4.19066 0.550582 4.19066 0.749332C4.19066 0.948083 4.26955 1.13871 4.41 1.27933L10.88 7.74933L4.41 14.2193C4.33631 14.288 4.27721 14.3708 4.23622 14.4628C4.19523 14.5548 4.17318 14.6541 4.17141 14.7548C4.16963 14.8555 4.18816 14.9555 4.22588 15.0489C4.2636 15.1423 4.31974 15.2272 4.39096 15.2984C4.46218 15.3696 4.54701 15.4257 4.6404 15.4635C4.73379 15.5012 4.83382 15.5197 4.93452 15.5179C5.03523 15.5161 5.13454 15.4941 5.22654 15.4531C5.31854 15.4121 5.40134 15.353 5.47 15.2793L13 7.74933L5.47 0.219332C5.32937 0.0788819 5.13875 -7.62939e-06 4.94 -7.62939e-06C4.74125 -7.62939e-06 4.55062 0.0788819 4.41 0.219332Z" fill="white"/>
</g>
<defs>
<clipPath id="clip0_1_334">
<rect width="16" height="16" fill="white"/>
</clipPath>
</defs>
</svg>
