<svg width="16" height="16" viewBox="0 0 16 16" fill="none" xmlns="http://www.w3.org/2000/svg">
<path d="M0.21934 4.2387C0.359965 4.09825 0.550589 4.01936 0.74934 4.01936C0.948091 4.01936 1.13871 4.09825 1.27934 4.2387L7.74934 10.7087L14.2193 4.2387C14.288 4.16502 14.3708 4.10591 14.4628 4.06492C14.5548 4.02393 14.6541 4.00189 14.7548 4.00011C14.8555 3.99833 14.9555 4.01686 15.0489 4.05458C15.1423 4.0923 15.2272 4.14845 15.2984 4.21967C15.3696 4.29088 15.4257 4.37572 15.4635 4.4691C15.5012 4.56249 15.5197 4.66252 15.5179 4.76323C15.5162 4.86393 15.4941 4.96324 15.4531 5.05524C15.4121 5.14724 15.353 5.23004 15.2793 5.2987L7.74934 12.8287L0.21934 5.2987C0.0788896 5.15808 0 4.96745 0 4.7687C0 4.56995 0.0788896 4.37933 0.21934 4.2387Z" fill="#1ED760"/>
</svg>
