<svg width="16" height="16" viewBox="0 0 16 16" fill="none" xmlns="http://www.w3.org/2000/svg">
<g clip-path="url(#clip0_1_329)">
<path d="M12.59 15.7807C12.7305 15.64 12.8093 15.4494 12.8093 15.2507C12.8093 15.0519 12.7305 14.8613 12.59 14.7207L6.12 8.25066L12.59 1.78066C12.6637 1.712 12.7228 1.6292 12.7638 1.5372C12.8048 1.4452 12.8268 1.34589 12.8286 1.24519C12.8304 1.14448 12.8118 1.04445 12.7741 0.951066C12.7364 0.857677 12.6803 0.772844 12.609 0.701626C12.5378 0.630407 12.453 0.574262 12.3596 0.536541C12.2662 0.49882 12.1662 0.480295 12.0655 0.482072C11.9648 0.483849 11.8655 0.505891 11.7735 0.546883C11.6815 0.587874 11.5987 0.646977 11.53 0.720664L4 8.25066L11.53 15.7807C11.6706 15.9211 11.8612 16 12.06 16C12.2587 16 12.4494 15.9211 12.59 15.7807Z" fill="white"/>
</g>
<defs>
<clipPath id="clip0_1_329">
<rect width="16" height="16" fill="white"/>
</clipPath>
</defs>
</svg>
