<svg width="16" height="16" viewBox="0 0 16 16" fill="none" xmlns="http://www.w3.org/2000/svg">
<g clip-path="url(#clip0_1_430)">
<path d="M15.4592 3.15159L10.6113 8.00001L15.4592 12.8482C16.1803 13.5696 16.1803 14.7381 15.4592 15.4595C15.0989 15.8198 14.6265 16.0001 14.1544 16.0001C13.6815 16.0001 13.209 15.8201 12.849 15.4595L8.00005 10.6108L3.15145 15.4594C2.7912 15.8197 2.31877 16 1.84621 16C1.37379 16 0.901693 15.82 0.541118 15.4594C-0.179985 14.7384 -0.179985 13.5698 0.541118 12.8482L5.38889 7.99996L0.540843 3.15159C-0.180261 2.43049 -0.180261 1.26168 0.540843 0.540574C1.26181 -0.179978 2.42993 -0.179978 3.15117 0.540574L8 5.38899L12.8485 0.540574C13.5698 -0.179978 14.7381 -0.179978 15.4589 0.540574C16.1803 1.26168 16.1803 2.43049 15.4592 3.15159Z" fill="white"/>
</g>
<defs>
<clipPath id="clip0_1_430">
<rect width="16" height="16" fill="white"/>
</clipPath>
</defs>
</svg>
