<svg width="16" height="16" viewBox="0 0 16 16" fill="none" xmlns="http://www.w3.org/2000/svg">
<path d="M7.99483 7.71676L12.9891 12.7108C13.2426 12.9645 13.5526 13.0911 13.9192 13.0911C14.2857 13.0911 14.5956 12.9645 14.8491 12.7108L15.6199 11.9402C15.8733 11.6869 16 11.3768 16 11.0104C16 10.644 15.8733 10.334 15.6199 10.0803L8.93008 3.38029C8.67658 3.12676 8.36657 2.99999 7.99998 2.99999C7.63339 2.99999 7.32364 3.12672 7.07003 3.38029L0.380229 10.0802C0.126731 10.334 0 10.6439 0 11.0103C0 11.3768 0.126731 11.6868 0.380229 11.9402L1.15091 12.7108C1.40427 12.9645 1.71255 13.0911 2.07582 13.0911C2.43881 13.0911 2.75055 12.9645 3.01085 12.7108L7.99483 7.71676Z" fill="white"/>
</svg>
