<svg width="16" height="16" viewBox="0 0 16 16" fill="none" xmlns="http://www.w3.org/2000/svg">
<path d="M8.37435 8.00517L3.38032 3.01092C3.12657 2.75742 2.99999 2.44738 2.99999 2.08083C2.99999 1.71431 3.12661 1.40441 3.38032 1.15095L4.1509 0.380122C4.40425 0.126731 4.71433 0 5.08074 0C5.44715 0 5.75709 0.126731 6.01084 0.380122L12.7108 7.06992C12.9644 7.32342 13.0911 7.63343 13.0911 8.00002C13.0911 8.36661 12.9644 8.67636 12.7108 8.92997L6.01087 15.6198C5.75712 15.8733 5.44722 16 5.08078 16C4.71433 16 4.40429 15.8733 4.15093 15.6198L3.38036 14.8491C3.12661 14.5957 3.00002 14.2875 3.00002 13.9242C3.00002 13.5612 3.12665 13.2495 3.38036 12.9892L8.37435 8.00517Z" fill="#1ED760"/>
</svg>
