<svg width="24" height="24" viewBox="0 0 24 24" fill="none" xmlns="http://www.w3.org/2000/svg">
<path fill-rule="evenodd" clip-rule="evenodd" d="M17.046 13.077C17.046 15.8637 14.7869 18.123 12 18.123C9.21312 18.123 6.95401 15.8637 6.95401 13.077C6.95401 10.2904 9.21312 8.03105 12 8.03105C14.7869 8.03105 17.046 10.2904 17.046 13.077ZM15.0276 13.077C15.0276 14.749 13.672 16.1046 12 16.1046C10.328 16.1046 8.9724 14.749 8.9724 13.077C8.9724 11.4051 10.328 10.0494 12 10.0494C13.672 10.0494 15.0276 11.4051 15.0276 13.077Z" fill="#B3B3B3"/>
<path fill-rule="evenodd" clip-rule="evenodd" d="M9.21362 2C8.51117 2 7.85898 2.36514 7.49236 2.96436L5.74425 5.81948H2.0184C0.903745 5.81948 0 6.72323 0 7.83788V20.0059C0 21.1211 0.903745 22.0243 2.0184 22.0243H21.9816C23.0965 22.0243 24 21.1211 24 20.0059V7.83788C24 6.72323 23.0965 5.81948 21.9816 5.81948H18.2503L16.4616 2.95056C16.093 2.35923 15.4455 2 14.7487 2H9.21362ZM9.21362 4.0184H14.7487L16.5377 6.88732C16.9063 7.47865 17.5538 7.83788 18.2503 7.83788H21.9816V20.0059H2.0184V7.83788H5.74425C6.44694 7.83788 7.09888 7.47224 7.46575 6.87352L9.21362 4.0184Z" fill="#B3B3B3"/>
</svg>
