<svg width="16" height="16" viewBox="0 0 16 16" fill="none" xmlns="http://www.w3.org/2000/svg">
<g clip-path="url(#clip0_1_468)">
<path d="M8.00523 8.2832L3.01098 3.28918C2.75748 3.03543 2.44744 2.90884 2.08089 2.90884C1.71437 2.90884 1.40447 3.03546 1.15101 3.28918L0.380183 4.05975C0.126792 4.3131 6.10352e-05 4.62319 6.10352e-05 4.98959C6.10352e-05 5.356 0.126792 5.66594 0.380183 5.91969L7.06998 12.6197C7.32348 12.8732 7.63349 13 8.00008 13C8.36667 13 8.67642 12.8732 8.93003 12.6197L15.6198 5.91972C15.8733 5.66597 16.0001 5.35607 16.0001 4.98963C16.0001 4.62319 15.8733 4.31314 15.6198 4.05979L14.8491 3.28921C14.5958 3.03546 14.2875 2.90887 13.9242 2.90887C13.5612 2.90887 13.2495 3.0355 12.9892 3.28921L8.00523 8.2832Z" fill="#1ED760"/>
</g>
<defs>
<clipPath id="clip0_1_468">
<rect width="16" height="16" fill="white"/>
</clipPath>
</defs>
</svg>
