<svg width="16" height="16" viewBox="0 0 16 16" fill="none" xmlns="http://www.w3.org/2000/svg">
<g clip-path="url(#clip0_1_375)">
<path d="M7.99999 2.00002C7.21206 2.00002 6.43184 2.15521 5.70389 2.45674C4.97594 2.75827 4.3145 3.20023 3.75735 3.75738C3.2002 4.31453 2.75824 4.97597 2.45671 5.70392C2.15518 6.43187 1.99999 7.21209 1.99999 8.00002C1.99999 8.78795 2.15518 9.56817 2.45671 10.2961C2.75824 11.0241 3.2002 11.6855 3.75735 12.2427C4.3145 12.7998 4.97594 13.2418 5.70389 13.5433C6.43184 13.8448 7.21206 14 7.99999 14C9.59129 14 11.1174 13.3679 12.2426 12.2427C13.3678 11.1174 14 9.59132 14 8.00002C14 6.40872 13.3678 4.8826 12.2426 3.75738C11.1174 2.63216 9.59129 2.00002 7.99999 2.00002ZM0.666656 8.00002C0.666656 3.95002 3.94999 0.666687 7.99999 0.666687C12.05 0.666687 15.3333 3.95002 15.3333 8.00002C15.3333 12.05 12.05 15.3334 7.99999 15.3334C3.94999 15.3334 0.666656 12.05 0.666656 8.00002Z" fill="white"/>
<path d="M8.00001 4.03333C8.17682 4.03333 8.34639 4.10356 8.47142 4.22859C8.59644 4.35361 8.66668 4.52318 8.66668 4.69999V9.69066L9.86201 8.49533C9.92351 8.43165 9.99707 8.38086 10.0784 8.34592C10.1597 8.31099 10.2472 8.29259 10.3357 8.29183C10.4243 8.29106 10.5121 8.30792 10.594 8.34144C10.6759 8.37496 10.7503 8.42447 10.8129 8.48706C10.8755 8.54966 10.925 8.62409 10.9586 8.70602C10.9921 8.78795 11.0089 8.87574 11.0082 8.96426C11.0074 9.05278 10.989 9.14026 10.9541 9.22159C10.9191 9.30293 10.8684 9.37649 10.8047 9.43799L8.00001 12.2427L5.19535 9.43799C5.13167 9.37649 5.08089 9.30293 5.04595 9.22159C5.01101 9.14026 4.99262 9.05278 4.99185 8.96426C4.99108 8.87574 5.00794 8.78795 5.04147 8.70602C5.07499 8.62409 5.12449 8.54966 5.18708 8.48706C5.24968 8.42447 5.32411 8.37496 5.40604 8.34144C5.48797 8.30792 5.57576 8.29106 5.66428 8.29183C5.7528 8.29259 5.84028 8.31099 5.92162 8.34592C6.00295 8.38086 6.07652 8.43165 6.13801 8.49533L7.33335 9.69066V4.69999C7.33335 4.52318 7.40358 4.35361 7.52861 4.22859C7.65363 4.10356 7.8232 4.03333 8.00001 4.03333Z" fill="white"/>
</g>
<defs>
<clipPath id="clip0_1_375">
<rect width="16" height="16" fill="white"/>
</clipPath>
</defs>
</svg>
