<svg width="16" height="16" viewBox="0 0 16 16" fill="none" xmlns="http://www.w3.org/2000/svg">
<path d="M8 0C6.41775 0 4.87103 0.469192 3.55544 1.34824C2.23985 2.22729 1.21447 3.47672 0.608967 4.93853C0.00346628 6.40034 -0.15496 8.00887 0.153721 9.56072C0.462403 11.1126 1.22433 12.538 2.34315 13.6569C3.46197 14.7757 4.88743 15.5376 6.43928 15.8463C7.99113 16.155 9.59966 15.9965 11.0615 15.391C12.5233 14.7855 13.7727 13.7602 14.6518 12.4446C15.5308 11.129 16 9.58225 16 8C15.9959 5.87952 15.1518 3.84705 13.6524 2.34764C12.153 0.848226 10.1205 0.00406613 8 0ZM11.0462 8.9L8.43846 11.5154C8.32084 11.6291 8.16362 11.6927 8 11.6927C7.83638 11.6927 7.67916 11.6291 7.56154 11.5154L4.95385 8.9C4.84778 8.78294 4.79079 8.62957 4.79468 8.47165C4.79857 8.31373 4.86304 8.16335 4.97474 8.05165C5.08644 7.93996 5.23681 7.87549 5.39473 7.8716C5.55265 7.86771 5.70602 7.9247 5.82308 8.03077L7.38462 9.59231V4.92308C7.38462 4.75987 7.44945 4.60334 7.56486 4.48793C7.68027 4.37253 7.83679 4.30769 8 4.30769C8.16321 4.30769 8.31974 4.37253 8.43514 4.48793C8.55055 4.60334 8.61539 4.75987 8.61539 4.92308V9.59231L10.1769 8.03077C10.294 7.9247 10.4474 7.86771 10.6053 7.8716C10.7632 7.87549 10.9136 7.93996 11.0253 8.05165C11.137 8.16335 11.2014 8.31373 11.2053 8.47165C11.2092 8.62957 11.1522 8.78294 11.0462 8.9Z" fill="#1ED760"/>
</svg>
