<svg width="16" height="16" viewBox="0 0 16 16" fill="none" xmlns="http://www.w3.org/2000/svg">
<g clip-path="url(#clip0_1_497)">
<path d="M15.724 4.21997C15.5511 3.36058 15.1205 2.57426 14.4895 1.96577C13.8585 1.35727 13.0571 0.955501 12.192 0.813974C11.542 0.710363 10.8769 0.758448 10.2485 0.954473C9.62022 1.1505 9.04573 1.48915 8.56997 1.94397C8.41511 2.088 8.21146 2.16806 7.99997 2.16806C7.78849 2.16806 7.58484 2.088 7.42997 1.94397C6.64007 1.17995 5.58612 0.749715 4.4872 0.742702C3.38827 0.735689 2.32891 1.15244 1.52932 1.90632C0.729733 2.6602 0.251419 3.69322 0.193807 4.79065C0.136194 5.88809 0.503715 6.96551 1.21997 7.79897L7.13597 14.849C7.24185 14.9749 7.37401 15.0762 7.52318 15.1457C7.67235 15.2152 7.83492 15.2512 7.99947 15.2512C8.16403 15.2512 8.3266 15.2152 8.47577 15.1457C8.62494 15.0762 8.75709 14.9749 8.86297 14.849L14.779 7.79897C15.1973 7.31337 15.4998 6.73902 15.6635 6.11933C15.8272 5.49964 15.8479 4.85083 15.724 4.22197V4.21997Z" fill="#1ED760"/>
</g>
<defs>
<clipPath id="clip0_1_497">
<rect width="16" height="16" fill="white"/>
</clipPath>
</defs>
</svg>
