<svg width="16" height="16" viewBox="0 0 16 16" fill="none" xmlns="http://www.w3.org/2000/svg">
<g clip-path="url(#clip0_1_501)">
<path d="M1.68998 2.00002C2.5444 1.19462 3.6754 0.747978 4.84957 0.752258C6.02374 0.756538 7.15145 1.21142 7.99998 2.02302C8.51046 1.53723 9.1261 1.1757 9.79903 0.966539C10.472 0.757376 11.1841 0.706209 11.88 0.817015H11.882C12.8087 0.968712 13.6672 1.39934 14.3429 2.05147C15.0186 2.7036 15.4795 3.54624 15.664 4.46702V4.47001C15.7972 5.14486 15.7754 5.84113 15.6002 6.50632C15.4251 7.17151 15.1012 7.78825 14.653 8.31002L9.34998 14.629C9.1004 14.9254 8.76025 15.1313 8.382 15.2152C8.00374 15.299 7.60841 15.2561 7.25698 15.093C7.02396 14.9846 6.81747 14.8266 6.65198 14.63L1.34798 8.30902C0.584249 7.4146 0.193696 6.26075 0.257172 5.08634C0.320649 3.91193 0.833293 2.8069 1.68898 2.00002H1.68998ZM4.84798 2.25202C4.25753 2.24901 3.67865 2.41569 3.1802 2.7322C2.68175 3.04872 2.28471 3.50176 2.03631 4.03742C1.78791 4.57308 1.69862 5.16883 1.77904 5.75378C1.85947 6.33873 2.10623 6.88827 2.48998 7.33702L2.49498 7.34202L7.79998 13.664C7.83723 13.7078 7.88776 13.7383 7.9439 13.7507C8.00003 13.7632 8.0587 13.757 8.11098 13.733C8.14566 13.7169 8.17638 13.6933 8.20098 13.664L13.513 7.33402C13.8138 6.98467 14.0314 6.57153 14.1492 6.12579C14.267 5.68006 14.282 5.21339 14.193 4.76102C14.0683 4.13994 13.7574 3.57157 13.3017 3.13157C12.846 2.69157 12.267 2.40082 11.642 2.29802C11.1732 2.22347 10.6935 2.25834 10.2403 2.39989C9.78723 2.54145 9.37299 2.78585 9.02998 3.11402L9.02298 3.12102C8.74522 3.37947 8.37989 3.52315 8.00048 3.52315C7.62107 3.52315 7.25574 3.37947 6.97798 3.12102L6.96898 3.11301C6.39873 2.56437 5.6393 2.25608 4.84798 2.25202Z" fill="white"/>
</g>
<defs>
<clipPath id="clip0_1_501">
<rect width="16" height="16" fill="white"/>
</clipPath>
</defs>
</svg>
