<svg width="16" height="16" viewBox="0 0 16 16" fill="none" xmlns="http://www.w3.org/2000/svg">
<path d="M8.99998 1.01C8.69594 0.834463 8.35105 0.74205 7.99998 0.74205C7.64891 0.74205 7.30402 0.834463 6.99998 1.01L1.99998 3.89667C1.79729 4.01369 1.62898 4.182 1.51195 4.38469C1.39493 4.58737 1.33332 4.81729 1.33331 5.05133V14C1.33331 14.1768 1.40355 14.3464 1.52858 14.4714C1.6536 14.5964 1.82317 14.6667 1.99998 14.6667H5.99998C6.17679 14.6667 6.34636 14.5964 6.47138 14.4714C6.59641 14.3464 6.66665 14.1768 6.66665 14V10H9.33331V14C9.33331 14.1768 9.40355 14.3464 9.52857 14.4714C9.6536 14.5964 9.82317 14.6667 9.99998 14.6667H14C14.1768 14.6667 14.3464 14.5964 14.4714 14.4714C14.5964 14.3464 14.6666 14.1768 14.6666 14V5.05133C14.6666 4.81729 14.605 4.58737 14.488 4.38469C14.371 4.182 14.2027 4.01369 14 3.89667L8.99998 1.01Z" fill="white"/>
</svg>
