<svg width="16" height="16" viewBox="0 0 16 16" fill="none" xmlns="http://www.w3.org/2000/svg">
<path d="M8.33331 2.16467C8.23197 2.10615 8.117 2.07535 7.99998 2.07535C7.88295 2.07535 7.76799 2.10615 7.66665 2.16467L2.66665 5.05133V13.3333H5.66665V9.33333C5.66665 9.15652 5.73688 8.98695 5.86191 8.86193C5.98693 8.7369 6.1565 8.66667 6.33331 8.66667H9.66665C9.84346 8.66667 10.013 8.7369 10.1381 8.86193C10.2631 8.98695 10.3333 9.15652 10.3333 9.33333V13.3333H13.3333V5.05133L8.33331 2.16467ZM6.99998 1.01C7.30402 0.834463 7.64891 0.74205 7.99998 0.74205C8.35105 0.74205 8.69594 0.834463 8.99998 1.01L14 3.89667C14.2027 4.01369 14.371 4.182 14.488 4.38469C14.605 4.58737 14.6666 4.81729 14.6666 5.05133V14C14.6666 14.1768 14.5964 14.3464 14.4714 14.4714C14.3464 14.5964 14.1768 14.6667 14 14.6667H9.66665C9.48983 14.6667 9.32027 14.5964 9.19524 14.4714C9.07022 14.3464 8.99998 14.1768 8.99998 14V10H6.99998V14C6.99998 14.1768 6.92974 14.3464 6.80472 14.4714C6.67969 14.5964 6.51012 14.6667 6.33331 14.6667H1.99998C1.82317 14.6667 1.6536 14.5964 1.52858 14.4714C1.40355 14.3464 1.33331 14.1768 1.33331 14V5.05133C1.33332 4.81729 1.39493 4.58737 1.51195 4.38469C1.62898 4.182 1.79729 4.01369 1.99998 3.89667L6.99998 1.01Z" fill="#1ED760"/>
</svg>
