<svg width="16" height="16" viewBox="0 0 16 16" fill="none" xmlns="http://www.w3.org/2000/svg">
<path d="M9.66668 1.42266C9.76802 1.36415 9.88299 1.33335 10 1.33335C10.117 1.33335 10.232 1.36415 10.3333 1.42266L14.3333 3.73199C14.4347 3.79051 14.5188 3.87466 14.5774 3.976C14.6359 4.07735 14.6667 4.19231 14.6667 4.30933V14C14.6667 14.1768 14.5964 14.3464 14.4714 14.4714C14.3464 14.5964 14.1768 14.6667 14 14.6667H10C9.8232 14.6667 9.65363 14.5964 9.52861 14.4714C9.40358 14.3464 9.33334 14.1768 9.33334 14V1.99999C9.33335 1.88297 9.36415 1.76801 9.42266 1.66667C9.48118 1.56533 9.56533 1.48117 9.66668 1.42266ZM10.6667 3.15466V13.3333H13.3333V4.69399L10.6667 3.15466ZM2.00001 14.6667C1.8232 14.6667 1.65363 14.5964 1.52861 14.4714C1.40358 14.3464 1.33334 14.1768 1.33334 14V1.99999C1.33334 1.82318 1.40358 1.65361 1.52861 1.52859C1.65363 1.40357 1.8232 1.33333 2.00001 1.33333C2.17682 1.33333 2.34639 1.40357 2.47141 1.52859C2.59644 1.65361 2.66668 1.82318 2.66668 1.99999V14C2.66668 14.1768 2.59644 14.3464 2.47141 14.4714C2.34639 14.5964 2.17682 14.6667 2.00001 14.6667ZM6.00001 14.6667C5.8232 14.6667 5.65363 14.5964 5.52861 14.4714C5.40358 14.3464 5.33334 14.1768 5.33334 14V1.99999C5.33334 1.82318 5.40358 1.65361 5.52861 1.52859C5.65363 1.40357 5.8232 1.33333 6.00001 1.33333C6.17682 1.33333 6.34639 1.40357 6.47141 1.52859C6.59644 1.65361 6.66668 1.82318 6.66668 1.99999V14C6.66668 14.1768 6.59644 14.3464 6.47141 14.4714C6.34639 14.5964 6.17682 14.6667 6.00001 14.6667Z" fill="#1ED760"/>
</svg>
