<svg width="16" height="16" viewBox="0 0 16 16" fill="none" xmlns="http://www.w3.org/2000/svg">
<path d="M4.00002 2H14V12.1113C14 12.5728 13.8632 13.0239 13.6068 13.4077C13.3504 13.7914 12.986 14.0904 12.5596 14.2671C12.1333 14.4437 11.6641 14.4899 11.2115 14.3998C10.7589 14.3098 10.3431 14.0876 10.0168 13.7612C9.69045 13.4349 9.46822 13.0192 9.37819 12.5665C9.28816 12.1139 9.33436 11.6448 9.51097 11.2184C9.68757 10.792 9.98664 10.4276 10.3704 10.1712C10.7541 9.91485 11.2052 9.778 11.6667 9.778H12.6667V3.33333H5.33335V12.1113C5.33335 12.5728 5.19651 13.0239 4.94012 13.4077C4.68373 13.7914 4.31931 14.0904 3.89295 14.2671C3.46659 14.4437 2.99743 14.4899 2.54481 14.3998C2.09219 14.3098 1.67643 14.0876 1.35011 13.7612C1.02378 13.4349 0.801555 13.0192 0.711522 12.5665C0.62149 12.1139 0.667698 11.6448 0.844302 11.2184C1.02091 10.792 1.31998 10.4276 1.70369 10.1712C2.08741 9.91485 2.53853 9.778 3.00002 9.778H4.00002V2ZM4.00002 11.1113H3.00002C2.80224 11.1113 2.6089 11.17 2.44445 11.2799C2.28 11.3897 2.15183 11.5459 2.07614 11.7287C2.00045 11.9114 1.98065 12.1124 2.01924 12.3064C2.05782 12.5004 2.15306 12.6786 2.29291 12.8184C2.43277 12.9583 2.61095 13.0535 2.80493 13.0921C2.99891 13.1307 3.19998 13.1109 3.3827 13.0352C3.56543 12.9595 3.72161 12.8314 3.83149 12.6669C3.94137 12.5025 4.00002 12.3091 4.00002 12.1113V11.1113ZM12.6667 11.1113H11.6667C11.4689 11.1113 11.2756 11.17 11.1111 11.2799C10.9467 11.3897 10.8185 11.5459 10.7428 11.7287C10.6671 11.9114 10.6473 12.1124 10.6859 12.3064C10.7245 12.5004 10.8197 12.6786 10.9596 12.8184C11.0994 12.9583 11.2776 13.0535 11.4716 13.0921C11.6656 13.1307 11.8666 13.1109 12.0494 13.0352C12.2321 12.9595 12.3883 12.8314 12.4982 12.6669C12.608 12.5025 12.6667 12.3091 12.6667 12.1113V11.1113Z" fill="#1ED760"/>
</svg>
