<svg width="16" height="16" viewBox="0 0 16 16" fill="none" xmlns="http://www.w3.org/2000/svg">
<g clip-path="url(#clip0_1_353)">
<path d="M13.426 2.574C13.0574 2.20523 12.5941 1.94543 12.0872 1.82324C11.5803 1.70106 11.0495 1.72124 10.5533 1.88155C10.0572 2.04187 9.61494 2.3361 9.27538 2.73179C8.93583 3.12748 8.71214 3.60926 8.629 4.124L11.876 7.371C12.3907 7.28786 12.8725 7.06417 13.2682 6.72462C13.6639 6.38506 13.9581 5.94281 14.1184 5.44666C14.2788 4.9505 14.2989 4.41971 14.1768 3.91282C14.0546 3.40592 13.7948 2.94262 13.426 2.574ZM10.5 8.118L7.881 5.498C6.83395 6.69029 5.78695 7.88263 4.74 9.075L2.065 12.12C1.85019 12.3658 1.73677 12.6839 1.74772 13.0102C1.75866 13.3364 1.89315 13.6462 2.12395 13.8771C2.35475 14.1079 2.66462 14.2423 2.99084 14.2533C3.31706 14.2642 3.63525 14.1508 3.881 13.936L6.941 11.248L10.501 8.119L10.5 8.118ZM7.12 4.094C7.21074 3.28356 7.52845 2.5152 8.03657 1.87734C8.5447 1.23949 9.22258 0.758052 9.99223 0.488437C10.7619 0.218822 11.592 0.171983 12.3871 0.353311C13.1822 0.534638 13.9099 0.936763 14.4866 1.51341C15.0632 2.09006 15.4654 2.81781 15.6467 3.6129C15.828 4.40799 15.7812 5.23812 15.5116 6.00777C15.2419 6.77742 14.7605 7.4553 14.1227 7.96343C13.4848 8.47155 12.7164 8.78926 11.906 8.88L7.932 12.373L4.872 15.062C4.34 15.5286 3.65042 15.7754 2.94314 15.7523C2.23587 15.7292 1.56387 15.4379 1.06349 14.9375C0.563101 14.4371 0.2718 13.7651 0.248681 13.0579C0.225563 12.3506 0.472359 11.661 0.938999 11.129L3.615 8.084L7.12 4.094Z" fill="#1ED760"/>
</g>
<defs>
<clipPath id="clip0_1_353">
<rect width="16" height="16" fill="white"/>
</clipPath>
</defs>
</svg>
