<svg width="24" height="24" viewBox="0 0 24 24" fill="none" xmlns="http://www.w3.org/2000/svg">
<path fill-rule="evenodd" clip-rule="evenodd" d="M6.34216 9.29321C6.28678 9.29503 6.23117 9.29594 6.17534 9.29594C5.52821 9.29594 4.90979 9.173 4.34216 8.9492V13.0302L2.55195 16.2634L0.908081 19.2322H4.30163H8.33703V19.4109V19.9159C8.33703 21.9389 9.977 23.5789 12 23.5789C14.023 23.5789 15.663 21.9389 15.663 19.9159V19.4109V19.2322H19.6984H23.2741L21.4025 16.1853L19.4286 12.972V7.42114C19.4286 3.55515 16.2946 0.421143 12.4286 0.421143H11.3422C10.7367 0.421143 10.1492 0.498006 9.58893 0.642506C10.1231 1.14182 10.5477 1.75693 10.8227 2.4478C10.9934 2.43018 11.1667 2.42114 11.3422 2.42114H12.4286C15.19 2.42114 17.4286 4.65972 17.4286 7.42114V11.53V13.5273V13.53H17.4242L17.4286 13.5372L18.4698 15.2322L18.6528 15.53L19.6984 17.2322H17.3512H6.58776H4.30163L5.24413 15.53L5.40906 15.2322L6.34216 13.547L6.35156 13.53H6.34216V13.5248V11.53V9.29321ZM10.337 19.9159C10.337 20.5728 10.7179 21.1407 11.2708 21.4109C11.491 21.5185 11.7384 21.5789 12 21.5789C12.2616 21.5789 12.509 21.5185 12.7292 21.4109C13.2821 21.1407 13.663 20.5728 13.663 19.9159V19.4109H12.337H11.663H10.337V19.9159Z" fill="white"/>
<circle cx="6.17535" cy="4.29593" r="3" fill="#3291FF"/>
</svg>
