<svg width="24" height="24" viewBox="0 0 24 24" fill="none" xmlns="http://www.w3.org/2000/svg">
<g clip-path="url(#clip0_1_517)">
<path d="M0 7.125C0 5.63316 0.592632 4.20242 1.64752 3.14752C2.70242 2.09263 4.13316 1.5 5.625 1.5H18.375C19.8668 1.5 21.2976 2.09263 22.3525 3.14752C23.4074 4.20242 24 5.63316 24 7.125V14.625C24 16.1168 23.4074 17.5476 22.3525 18.6025C21.2976 19.6574 19.8668 20.25 18.375 20.25H14.715L16.242 21.777C16.3525 21.88 16.4412 22.0042 16.5027 22.1422C16.5642 22.2802 16.5972 22.4292 16.5999 22.5802C16.6026 22.7313 16.5748 22.8813 16.5182 23.0214C16.4616 23.1615 16.3774 23.2887 16.2706 23.3956C16.1637 23.5024 16.0365 23.5866 15.8964 23.6432C15.7563 23.6998 15.6063 23.7276 15.4552 23.7249C15.3042 23.7222 15.1552 23.6892 15.0172 23.6277C14.8792 23.5662 14.755 23.4775 14.652 23.367L10.4085 19.125L14.652 14.883C14.755 14.7725 14.8792 14.6838 15.0172 14.6223C15.1552 14.5608 15.3042 14.5278 15.4552 14.5251C15.6063 14.5224 15.7563 14.5502 15.8964 14.6068C16.0365 14.6634 16.1637 14.7476 16.2706 14.8544C16.3774 14.9613 16.4616 15.0885 16.5182 15.2286C16.5748 15.3687 16.6026 15.5187 16.5999 15.6698C16.5972 15.8208 16.5642 15.9698 16.5027 16.1078C16.4412 16.2458 16.3525 16.37 16.242 16.473L14.7165 18H18.375C19.2701 18 20.1285 17.6444 20.7615 17.0115C21.3944 16.3785 21.75 15.5201 21.75 14.625V7.125C21.75 6.22989 21.3944 5.37145 20.7615 4.73851C20.1285 4.10558 19.2701 3.75 18.375 3.75H5.625C4.72989 3.75 3.87145 4.10558 3.23851 4.73851C2.60558 5.37145 2.25 6.22989 2.25 7.125V14.625C2.25 15.5201 2.60558 16.3785 3.23851 17.0115C3.87145 17.6444 4.72989 18 5.625 18H7.5V20.25H5.625C4.13316 20.25 2.70242 19.6574 1.64752 18.6025C0.592632 17.5476 0 16.1168 0 14.625L0 7.125Z" fill="white"/>
</g>
<defs>
<clipPath id="clip0_1_517">
<rect width="24" height="24" fill="white"/>
</clipPath>
</defs>
</svg>
