<svg width="24" height="24" viewBox="0 0 24 24" fill="none" xmlns="http://www.w3.org/2000/svg">
<path d="M2.14242 11.0826C1.53752 11.0263 0.995746 11.4718 1.00015 12.0793C1.01377 13.9583 1.50877 15.8092 2.44621 17.4518C3.56603 19.414 5.26287 20.9837 7.3061 21.9478C9.34933 22.9118 11.6398 23.2233 13.8663 22.84C16.0928 22.4566 18.1472 21.397 19.7504 19.8052C21.3536 18.2134 22.4277 16.1665 22.8269 13.9428C23.226 11.7191 22.9307 9.42643 21.9812 7.37641C21.0317 5.32639 19.474 3.61846 17.5198 2.48474C15.8839 1.53567 14.0366 1.02755 12.1577 1.00059C11.5503 0.991879 11.101 1.53048 11.1529 2.13576C11.2049 2.74105 11.739 3.18237 12.3461 3.20627C13.7731 3.26246 15.171 3.66549 16.4158 4.38769C17.9792 5.29466 19.2253 6.66101 19.9849 8.30102C20.7446 9.94104 20.9808 11.7752 20.6615 13.5541C20.3422 15.3331 19.4828 16.9706 18.2003 18.244C16.9178 19.5175 15.2742 20.3652 13.493 20.6719C11.7118 20.9785 9.87943 20.7293 8.24485 19.9581C6.61027 19.1869 5.2528 17.9311 4.35694 16.3613C3.6436 15.1114 3.25049 13.7107 3.20444 12.2833C3.18485 11.6761 2.74732 11.1388 2.14242 11.0826Z" fill="white"/>
<path d="M8.23669 3.36458C8.23669 4.02602 7.70049 4.56221 7.03905 4.56221C6.37762 4.56221 5.84142 4.02602 5.84142 3.36458C5.84142 2.70315 6.37762 2.16695 7.03905 2.16695C7.70049 2.16695 8.23669 2.70315 8.23669 3.36458Z" fill="white"/>
<path d="M4.62145 7.05892C4.62145 7.72035 4.08525 8.25655 3.42382 8.25655C2.76239 8.25655 2.22619 7.72035 2.22619 7.05892C2.22619 6.39748 2.76239 5.86129 3.42382 5.86129C4.08525 5.86129 4.62145 6.39748 4.62145 7.05892Z" fill="white"/>
<path d="M12.1354 5.0483C11.5951 5.0483 11.1569 5.48629 11.1569 6.02681V13.0717H16.1136C16.6754 13.0717 17.131 12.6167 17.131 12.0546C17.131 11.4926 16.6754 11.0371 16.1136 11.0371H13.1141V6.02681C13.1141 5.48629 12.6759 5.0483 12.1354 5.0483Z" fill="white"/>
</svg>
