<svg width="16" height="16" viewBox="0 0 16 16" fill="none" xmlns="http://www.w3.org/2000/svg">
<path d="M13.3621 6.0163L9.96896 5.70834L8.64395 2.44544C8.40559 1.85152 7.59236 1.85152 7.35399 2.44544L6.02898 5.71567L2.64285 6.0163C2.02591 6.06763 1.77353 6.87418 2.24324 7.29946L4.81614 9.63115L4.04497 13.092C3.90476 13.7226 4.55675 14.2212 5.08956 13.8839L7.99897 12.0508L10.9084 13.8913C11.4412 14.2285 12.0932 13.7299 11.953 13.0994L11.1818 9.63115L13.7547 7.29946C14.2244 6.87418 13.979 6.06763 13.3621 6.0163ZM7.99897 10.6797L5.36297 12.3441L6.06404 9.20587L3.73651 7.09416L6.80717 6.81553L7.99897 3.86059L9.19779 6.82286L12.2685 7.10149L9.94092 9.21321L10.642 12.3515L7.99897 10.6797Z" fill="#B3B3B3"/>
</svg>
