<svg width="16" height="16" viewBox="0 0 16 16" fill="none" xmlns="http://www.w3.org/2000/svg">
<path d="M7.02194 0.852668C3.56861 0.852668 0.75061 3.61267 0.75061 7.03867C0.75061 10.4647 3.56794 13.2247 7.02194 13.2247C8.51128 13.2247 9.88194 12.7113 10.9599 11.8527L13.8619 14.7547C13.9234 14.8183 13.997 14.8691 14.0783 14.9041C14.1597 14.939 14.2472 14.9574 14.3357 14.9582C14.4242 14.9589 14.512 14.9421 14.5939 14.9085C14.6758 14.875 14.7503 14.8255 14.8129 14.7629C14.8755 14.7003 14.925 14.6259 14.9585 14.544C14.992 14.462 15.0089 14.3743 15.0081 14.2857C15.0073 14.1972 14.989 14.1097 14.954 14.0284C14.9191 13.9471 14.8683 13.8735 14.8046 13.812L11.9086 10.916C12.8052 9.82289 13.2946 8.45246 13.2933 7.03867C13.2933 3.612 10.4759 0.852001 7.02194 0.852001V0.852668ZM2.08394 7.03867C2.08394 4.368 4.28528 2.18533 7.02194 2.18533C9.75861 2.18533 11.9599 4.368 11.9599 7.03867C11.9599 9.70933 9.75861 11.8913 7.02194 11.8913C4.28528 11.8913 2.08394 9.70934 2.08394 7.038V7.03867Z" fill="white"/>
</svg>
