<svg width="24" height="24" viewBox="0 0 24 24" fill="none" xmlns="http://www.w3.org/2000/svg">
<path d="M19.7265 1.383C19.6235 1.27247 19.4993 1.18381 19.3613 1.12232C19.2233 1.06084 19.0743 1.02777 18.9233 1.02511C18.7722 1.02244 18.6222 1.05023 18.4821 1.10681C18.342 1.16339 18.2148 1.24761 18.1079 1.35444C18.0011 1.46127 17.9169 1.58852 17.8603 1.7286C17.8037 1.86868 17.7759 2.01872 17.7786 2.16978C17.7813 2.32083 17.8143 2.4698 17.8758 2.6078C17.9373 2.7458 18.026 2.87 18.1365 2.973L19.6635 4.5H16.74C15.9185 4.50001 15.1069 4.67996 14.3624 5.02722C13.6179 5.37447 12.9585 5.88059 12.4305 6.51L3.171 17.544C2.85419 17.9217 2.45849 18.2254 2.01172 18.4337C1.56495 18.6421 1.07796 18.75 0.585 18.75H0V21H0.5865C1.40802 21 2.21957 20.82 2.96409 20.4728C3.70861 20.1255 4.36804 19.6194 4.896 18.99L14.1555 7.95599C14.4723 7.57831 14.868 7.27462 15.3148 7.06626C15.7615 6.85791 16.2485 6.74996 16.7415 6.75H19.662L18.1365 8.277C17.9378 8.49026 17.8296 8.77233 17.8347 9.06378C17.8399 9.35523 17.9579 9.63331 18.1641 9.83943C18.3702 10.0455 18.6483 10.1636 18.9397 10.1688C19.2312 10.1739 19.5132 10.0657 19.7265 9.86699L23.97 5.625L19.725 1.383H19.7265ZM0.5865 5.25H0V3H0.5865C2.25 3 3.8265 3.735 4.896 5.01L7.335 7.91549L5.8665 9.66599L3.1725 6.456C2.85553 6.07812 2.45958 5.77431 2.01254 5.56595C1.5655 5.35759 1.07822 5.24974 0.585 5.25H0.5865Z" fill="white"/>
<path d="M11.25 16.0845L12.72 14.334L14.1555 16.044C14.4723 16.4217 14.868 16.7254 15.3148 16.9337C15.7615 17.1421 16.2485 17.25 16.7415 17.25H19.662L18.1365 15.723C18.026 15.62 17.9373 15.4958 17.8758 15.3578C17.8143 15.2198 17.7813 15.0708 17.7786 14.9198C17.7759 14.7687 17.8037 14.6187 17.8603 14.4786C17.9169 14.3385 18.0011 14.2113 18.1079 14.1044C18.2148 13.9976 18.342 13.9134 18.4821 13.8568C18.6222 13.8002 18.7722 13.7724 18.9233 13.7751C19.0743 13.7778 19.2233 13.8108 19.3613 13.8723C19.4993 13.9338 19.6235 14.0225 19.7265 14.133L23.97 18.375L19.7265 22.617C19.6235 22.7275 19.4993 22.8162 19.3613 22.8777C19.2233 22.9392 19.0743 22.9722 18.9233 22.9749C18.7722 22.9775 18.6222 22.9498 18.4821 22.8932C18.342 22.8366 18.2148 22.7524 18.1079 22.6456C18.0011 22.5387 17.9169 22.4115 17.8603 22.2714C17.8037 22.1313 17.7759 21.9813 17.7786 21.8302C17.7813 21.6792 17.8143 21.5302 17.8758 21.3922C17.9373 21.2542 18.026 21.13 18.1365 21.027L19.6635 19.5H16.74C15.9185 19.5 15.1069 19.32 14.3624 18.9728C13.6179 18.6255 12.9585 18.1194 12.4305 17.49L11.25 16.083V16.0845Z" fill="white"/>
</svg>
