<svg width="24" height="24" viewBox="0 0 24 24" fill="none" xmlns="http://www.w3.org/2000/svg">
<path d="M2.73674 5.56538L2.10035 4.92898L2.73675 5.56538L5.56517 2.73695C5.60422 2.6979 5.66754 2.6979 5.7066 2.73695L6.6565 3.68686C7.85343 4.88379 9.9 4.03607 9.9 2.34335L9.9 0.999999C9.9 0.944771 9.94477 0.899999 10 0.899999L14 0.9C14.0552 0.9 14.1 0.944771 14.1 1L14.1 2.34294C14.1 4.03566 16.1466 4.88337 17.3435 3.68644L18.293 2.73699C18.332 2.69794 18.3953 2.69794 18.4344 2.73699L21.2628 5.56542C21.3019 5.60447 21.3019 5.66779 21.2628 5.70684L20.3131 6.6565C19.1162 7.85343 19.9639 9.9 21.6566 9.9L23 9.9C23.0552 9.9 23.1 9.94477 23.1 10L23.1 14C23.1 14.0552 23.0552 14.1 23 14.1L21.6566 14.1C19.9639 14.1 19.1162 16.1466 20.3131 17.3435L21.2629 18.2933C21.302 18.3324 21.302 18.3957 21.2629 18.4347L18.4345 21.2632C18.3955 21.3022 18.3321 21.3022 18.2931 21.2632L17.6567 21.8995L18.2931 21.2632L17.3435 20.3136C16.1466 19.1166 14.1 19.9643 14.1 21.6571L14.1 23C14.1 23.0552 14.0552 23.1 14 23.1L10 23.1C9.94477 23.1 9.9 23.0552 9.9 23L9.9 21.6566C9.9 19.9639 7.85343 19.1162 6.6565 20.3131L5.70645 21.2632C5.6674 21.3022 5.60408 21.3022 5.56503 21.2632L2.7366 18.4348C2.69755 18.3957 2.69755 18.3324 2.7366 18.2933L3.68644 17.3435C4.88337 16.1466 4.03566 14.1 2.34293 14.1L0.999999 14.1C0.944772 14.1 0.899999 14.0552 0.899999 14L0.899999 10C0.899999 9.94477 0.944772 9.9 1 9.9L2.34294 9.9C4.03566 9.9 4.88337 7.85343 3.68644 6.6565L2.73675 5.7068C2.69769 5.66775 2.69769 5.60443 2.73674 5.56538ZM8.1 12C8.1 14.1539 9.84609 15.9 12 15.9C14.1539 15.9 15.9 14.1539 15.9 12C15.9 9.84609 14.1539 8.1 12 8.1C9.84609 8.1 8.1 9.84609 8.1 12Z" stroke="white" stroke-width="1.8"/>
</svg>
