<svg width="16" height="16" viewBox="0 0 16 16" fill="none" xmlns="http://www.w3.org/2000/svg">
<mask id="mask0_1_483" style="mask-type:alpha" maskUnits="userSpaceOnUse" x="0" y="0" width="16" height="16">
<rect width="16" height="16" fill="#D9D9D9"/>
</mask>
<g mask="url(#mask0_1_483)">
<path d="M12.6667 15.5556C12.0185 15.5556 11.4676 15.3287 11.0139 14.875C10.5602 14.4213 10.3333 13.8704 10.3333 13.2222C10.3333 13.1315 10.3398 13.0374 10.3528 12.9399C10.3657 12.8429 10.3852 12.7556 10.4111 12.6778L4.92778 9.48889C4.70741 9.68333 4.46111 9.83552 4.18889 9.94544C3.91667 10.0559 3.63148 10.1111 3.33333 10.1111C2.68519 10.1111 2.13426 9.88426 1.68056 9.43056C1.22685 8.97685 1 8.42593 1 7.77778C1 7.12963 1.22685 6.5787 1.68056 6.125C2.13426 5.6713 2.68519 5.44444 3.33333 5.44444C3.63148 5.44444 3.91667 5.49941 4.18889 5.60933C4.46111 5.71978 4.70741 5.87222 4.92778 6.06667L10.4111 2.87778C10.3852 2.8 10.3657 2.71263 10.3528 2.61567C10.3398 2.51819 10.3333 2.42407 10.3333 2.33333C10.3333 1.68519 10.5602 1.13426 11.0139 0.680556C11.4676 0.226852 12.0185 0 12.6667 0C13.3148 0 13.8657 0.226852 14.3194 0.680556C14.7731 1.13426 15 1.68519 15 2.33333C15 2.98148 14.7731 3.53241 14.3194 3.98611C13.8657 4.43982 13.3148 4.66667 12.6667 4.66667C12.3685 4.66667 12.0833 4.61144 11.8111 4.501C11.5389 4.39107 11.2926 4.23889 11.0722 4.04444L5.58889 7.23333C5.61481 7.31111 5.63426 7.39848 5.64722 7.49544C5.66019 7.59293 5.66667 7.68704 5.66667 7.77778C5.66667 7.86852 5.66019 7.96237 5.64722 8.05933C5.63426 8.15682 5.61481 8.24444 5.58889 8.32222L11.0722 11.5111C11.2926 11.3167 11.5389 11.1642 11.8111 11.0538C12.0833 10.9439 12.3685 10.8889 12.6667 10.8889C13.3148 10.8889 13.8657 11.1157 14.3194 11.5694C14.7731 12.0231 15 12.5741 15 13.2222C15 13.8704 14.7731 14.4213 14.3194 14.875C13.8657 15.3287 13.3148 15.5556 12.6667 15.5556ZM12.6667 3.11111C12.887 3.11111 13.0716 3.0367 13.2204 2.88789C13.3698 2.73856 13.4444 2.5537 13.4444 2.33333C13.4444 2.11296 13.3698 1.92811 13.2204 1.77878C13.0716 1.62996 12.887 1.55556 12.6667 1.55556C12.4463 1.55556 12.2617 1.62996 12.1129 1.77878C11.9636 1.92811 11.8889 2.11296 11.8889 2.33333C11.8889 2.5537 11.9636 2.73856 12.1129 2.88789C12.2617 3.0367 12.4463 3.11111 12.6667 3.11111ZM3.33333 8.55556C3.5537 8.55556 3.73856 8.48089 3.88789 8.33156C4.0367 8.18274 4.11111 7.99815 4.11111 7.77778C4.11111 7.55741 4.0367 7.37256 3.88789 7.22322C3.73856 7.07441 3.5537 7 3.33333 7C3.11296 7 2.92811 7.07441 2.77878 7.22322C2.62996 7.37256 2.55556 7.55741 2.55556 7.77778C2.55556 7.99815 2.62996 8.18274 2.77878 8.33156C2.92811 8.48089 3.11296 8.55556 3.33333 8.55556ZM12.6667 14C12.887 14 13.0716 13.9253 13.2204 13.776C13.3698 13.6272 13.4444 13.4426 13.4444 13.2222C13.4444 13.0019 13.3698 12.8173 13.2204 12.6684C13.0716 12.5191 12.887 12.4444 12.6667 12.4444C12.4463 12.4444 12.2617 12.5191 12.1129 12.6684C11.9636 12.8173 11.8889 13.0019 11.8889 13.2222C11.8889 13.4426 11.9636 13.6272 12.1129 13.776C12.2617 13.9253 12.4463 14 12.6667 14Z" fill="white"/>
</g>
</svg>
