<svg width="30" height="31" viewBox="0 0 30 31" fill="none" xmlns="http://www.w3.org/2000/svg">
<path d="M23.509 13.685C18.7476 10.8543 10.8937 10.594 6.34834 11.9751C5.61839 12.1967 4.84655 11.7842 4.62538 11.0535C4.4042 10.3224 4.81582 9.55021 5.54625 9.32807C10.764 7.74234 19.4378 8.04871 24.9192 11.3062C25.5759 11.6962 25.7913 12.5451 25.402 13.2014C25.0125 13.8586 24.1639 14.0752 23.509 13.685ZM23.3531 17.8779C23.0192 18.4206 22.3104 18.5906 21.7691 18.2576C17.7995 15.8148 11.7463 15.1072 7.04996 16.5343C6.44094 16.7185 5.79767 16.3748 5.61275 15.7662C5.42918 15.1565 5.77273 14.5137 6.38065 14.3283C11.7456 12.6985 18.4149 13.4879 22.9742 16.2929C23.5155 16.6266 23.6859 17.3366 23.3531 17.8779ZM21.5456 21.9046C21.2803 22.3402 20.7134 22.4769 20.2799 22.2113C16.8111 20.089 12.4451 19.6095 7.30338 20.7854C6.80783 20.8991 6.31408 20.5882 6.20102 20.0923C6.08755 19.5963 6.39685 19.102 6.89349 18.9889C12.5202 17.7011 17.3469 18.2553 21.2403 20.6371C21.6744 20.9024 21.8111 21.4702 21.5456 21.9046ZM14.7714 0.57547C6.61354 0.57547 0 7.19598 0 15.3629C0 23.5306 6.61354 30.1509 14.7714 30.1509C22.9296 30.1509 29.5427 23.5306 29.5427 15.3629C29.5427 7.19598 22.9296 0.57547 14.7714 0.57547Z" fill="white"/>
</svg>
