<svg width="16" height="16" viewBox="0 0 16 16" fill="none" xmlns="http://www.w3.org/2000/svg">
<path d="M10.2373 7.03866C10.2373 8.78733 8.79733 10.2053 7.022 10.2053C5.246 10.2053 3.806 8.78733 3.806 7.03866C3.806 5.28999 5.246 3.87199 7.022 3.87199C8.798 3.87199 10.2373 5.28999 10.2373 7.03866Z" fill="#1ED760"/>
<path d="M0.750671 7.03867C0.750671 3.612 3.568 0.852005 7.022 0.852005C10.4753 0.852005 13.2933 3.612 13.2933 7.03867C13.2947 8.45246 12.8053 9.82289 11.9087 10.916L14.8047 13.812C14.9261 13.9377 14.9933 14.1061 14.9918 14.2809C14.9903 14.4557 14.9202 14.6229 14.7966 14.7466C14.6729 14.8702 14.5057 14.9403 14.3309 14.9418C14.1561 14.9433 13.9877 14.8761 13.862 14.7547L10.96 11.8527C9.84105 12.7436 8.45232 13.2274 7.022 13.2247C3.56867 13.2247 0.750671 10.4647 0.750671 7.03801V7.03867ZM7.022 2.18534C4.28534 2.18534 2.084 4.368 2.084 7.03867C2.084 9.70934 4.28534 11.8913 7.022 11.8913C9.75867 11.8913 11.96 9.70934 11.96 7.03801C11.96 4.36801 9.75867 2.186 7.022 2.186V2.18534Z" fill="#1ED760"/>
</svg>
