<svg width="16" height="16" viewBox="0 0 16 16" fill="none" xmlns="http://www.w3.org/2000/svg">
<g clip-path="url(#clip0_1_368)">
<path d="M9.74102 0.85C9.8551 0.915867 9.94983 1.01062 10.0157 1.12473C10.0815 1.23883 10.1161 1.36827 10.116 1.5V14.5C10.1161 14.6317 10.0815 14.7611 10.0157 14.8752C9.94993 14.9893 9.85526 15.084 9.74123 15.1499C9.6272 15.2158 9.49783 15.2505 9.36614 15.2505C9.23445 15.2505 9.10507 15.2158 8.99102 15.15L2.06602 11.15C1.23221 10.6666 0.624037 9.87232 0.374741 8.9413C0.125444 8.01028 0.255359 7.01841 0.736019 6.183C1.05486 5.63004 1.51354 5.17067 2.06602 4.851L8.99102 0.851C9.10503 0.785174 9.23437 0.750519 9.36602 0.750519C9.49767 0.750519 9.627 0.785174 9.74102 0.851V0.85ZM2.81702 6.15C2.49299 6.33806 2.22403 6.60793 2.03707 6.9326C1.85012 7.25727 1.75171 7.62535 1.75171 8C1.75171 8.37465 1.85012 8.74273 2.03707 9.0674C2.22403 9.39207 2.49299 9.66194 2.81702 9.85L8.61702 13.2V2.8L2.81702 6.15ZM11.5 10.44V5.56C11.9466 5.79217 12.321 6.14246 12.5822 6.57271C12.8434 7.00295 12.9816 7.49665 12.9816 8C12.9816 8.50335 12.8434 8.99705 12.5822 9.42729C12.321 9.85754 11.9466 10.2078 11.5 10.44Z" fill="white"/>
<path d="M11.5 13.614C12.7765 13.3292 13.9179 12.6179 14.7359 11.5973C15.5539 10.5768 15.9996 9.30792 15.9996 8C15.9996 6.69209 15.5539 5.42323 14.7359 4.40266C13.9179 3.3821 12.7765 2.67078 11.5 2.386V3.936C12.3687 4.20367 13.1288 4.7427 13.6688 5.47403C14.2087 6.20535 14.5 7.09046 14.5 7.9995C14.5 8.90854 14.2087 9.79365 13.6688 10.525C13.1288 11.2563 12.3687 11.7953 11.5 12.063V13.613V13.614Z" fill="white"/>
</g>
<defs>
<clipPath id="clip0_1_368">
<rect width="16" height="16" fill="white"/>
</clipPath>
</defs>
</svg>
