<svg width="85" height="85" viewBox="0 0 85 85" fill="none" xmlns="http://www.w3.org/2000/svg">
    <rect width="85" height="85" rx="12" fill="black" />
    <ellipse cx="42.5135" cy="66.0437" rx="15.3491" ry="10.3832"
        transform="rotate(-15 42.5135 66.0437)" fill="white" />
    <path d="M55 12L55 64" stroke="white" stroke-width="5" stroke-linecap="round" />
    <path d="M55 12C58.1378 30.5 85.3316 40 68.5969 54" stroke="white" stroke-width="5"
        stroke-linecap="round" />
    <path
        d="M50.0804 12.2722C50.3864 10.9445 49.5586 9.61076 48.2122 9.40186C41.2554 8.32247 34.1119 9.42716 27.7803 12.5967C20.7111 16.1355 15.0961 22.027 11.9009 29.258C8.70566 36.4889 8.13006 44.6073 10.2731 52.2167C12.1925 59.0322 16.1853 65.0578 21.6673 69.4748C22.7282 70.3297 24.2717 70.0437 25.0474 68.9236C25.8231 67.8035 25.536 66.2744 24.4857 65.4066C19.9419 61.6522 16.6306 56.5901 15.0223 50.8792C13.1903 44.374 13.6824 37.4338 16.4139 31.2522C19.1454 25.0706 23.9456 20.034 29.9889 17.0088C35.2943 14.3529 41.2666 13.3929 47.1018 14.2248C48.4507 14.4171 49.7745 13.5999 50.0804 12.2722Z"
        fill="white" />
    <path
        d="M51 43.5C51 48.1944 47.1944 52 42.5 52C37.8056 52 34 48.1944 34 43.5C34 38.8056 37.8056 35 42.5 35C47.1944 35 51 38.8056 51 43.5ZM37.6216 43.5C37.6216 46.1943 39.8057 48.3784 42.5 48.3784C45.1943 48.3784 47.3784 46.1943 47.3784 43.5C47.3784 40.8057 45.1943 38.6216 42.5 38.6216C39.8057 38.6216 37.6216 40.8057 37.6216 43.5Z"
        fill="white" />
    <path
        d="M39.704 28.4307C39.5858 27.7935 38.9719 27.3686 38.3447 27.5318C35.9703 28.1497 33.7586 29.2907 31.8741 30.877C29.9896 32.4633 28.4881 34.4481 27.4744 36.6823C27.2066 37.2724 27.5206 37.9498 28.1283 38.175C28.736 38.4001 29.4068 38.0874 29.6815 37.5004C30.5495 35.6458 31.8119 33.9972 33.3855 32.6725C34.9592 31.3478 36.799 30.3851 38.7744 29.8461C39.3997 29.6755 39.8222 29.0679 39.704 28.4307Z"
        fill="white" />
    <path
        d="M42.5 22.527C42.5 21.6837 41.8155 20.9946 40.9741 21.0518C36.0927 21.3835 31.4365 23.2995 27.7256 26.5304C24.0147 29.7613 21.4759 34.1095 20.4755 38.8987C20.303 39.7243 20.8913 40.4971 21.7267 40.6132C22.562 40.7292 23.3272 40.1442 23.5085 39.3205C24.4017 35.2615 26.5762 31.5805 29.731 28.8338C32.8858 26.0871 36.831 24.4399 40.9744 24.114C41.8152 24.0478 42.5 23.3704 42.5 22.527Z"
        fill="white" />
</svg>
    